<svg
    id="Group_1"
    data-name="Group 1"
    xmlns="http://www.w3.org/2000/svg"
    width="24"
    height="24"
    viewBox="0 0 24 24"
>
    <path
        id="Path_1"
        data-name="Path 1"
        d="M1.257,17.317l4.13-3.086a7.016,7.016,0,0,1,0-4.461L1.257,6.683a11.874,11.874,0,0,0,0,10.634Z"
        fill="#fbbc05"
        fill-rule="evenodd"
    />
    <path
        id="Path_2"
        data-name="Path 2"
        d="M5.387,9.77A7.3,7.3,0,0,1,16.8,6.49L20.373,3A12.426,12.426,0,0,0,1.257,6.683l4.13,3.086Z"
        fill="#ea4335"
        fill-rule="evenodd"
    />
    <path
        id="Path_3"
        data-name="Path 3"
        d="M1.256,17.314A12.272,12.272,0,0,0,12.279,24C18.419,24,24,19.636,24,12a9.7,9.7,0,0,0-.278-2.182H12.279v4.636h6.586c-.614,2.946-3.181,4.637-6.586,4.637a7.229,7.229,0,0,1-6.895-4.87L1.256,17.314Z"
        fill="#34a853"
        fill-rule="evenodd"
    />
    <path
        id="Path_4"
        data-name="Path 4"
        d="M12.279,9.818H23.721A9.775,9.775,0,0,1,24,12a11.813,11.813,0,0,1-3.718,9.011l-3.92-2.966a5.405,5.405,0,0,0,2.5-3.59H12.279V9.817Z"
        fill="#4285f4"
        fill-rule="evenodd"
    />
</svg>