<?xml version="1.0" encoding="UTF-8"?>
<svg id="Layer_1" data-name="Layer 1" xmlns="http://www.w3.org/2000/svg" width="17.37" height="22" viewBox="0 0 17.37 22">
    <path d="M8.94,5.08c.96,0,2.17-.67,2.89-1.57,.65-.81,1.13-1.94,1.13-3.08,0-.15-.01-.31-.04-.43-1.07,.04-2.36,.74-3.13,1.68-.61,.71-1.17,1.83-1.17,2.98,0,.17,.03,.34,.04,.39,.07,.01,.18,.03,.28,.03Zm-3.39,16.92c1.32,0,1.9-.91,3.54-.91s2.04,.88,3.5,.88,2.4-1.37,3.31-2.71c1.02-1.54,1.44-3.05,1.47-3.12-.09-.03-2.85-1.19-2.85-4.45,0-2.83,2.17-4.1,2.29-4.2-1.44-2.13-3.62-2.18-4.22-2.18-1.61,0-2.93,1.01-3.76,1.01-.9,0-2.08-.95-3.47-.95C2.7,5.37,0,7.64,0,11.92c0,2.66,1,5.47,2.24,7.29,1.06,1.54,1.98,2.8,3.31,2.8Z"/>
</svg>