<?xml version="1.0" encoding="UTF-8"?>
<svg id="Layer_1" data-name="Layer 1" xmlns="http://www.w3.org/2000/svg" width="22.04" height="21.5" viewBox="0 0 22.04 21.5">
    <defs>
        <style>
        .cls-1 {
            fill: #181616;
            fill-rule: evenodd;
        }
        </style>
    </defs>
    <path class="cls-1" d="M11.02,0C4.94,0,0,4.93,0,11.02c0,4.87,3.16,9,7.54,10.46,.55,.1,.75-.24,.75-.53,0-.26,0-.95-.01-1.87-3.07,.67-3.71-1.48-3.71-1.48-.5-1.27-1.22-1.61-1.22-1.61-1-.68,.08-.67,.08-.67,1.11,.08,1.69,1.14,1.69,1.14,.98,1.68,2.58,1.2,3.21,.92,.1-.71,.38-1.2,.7-1.47-2.45-.28-5.02-1.22-5.02-5.45,0-1.2,.43-2.19,1.13-2.96-.11-.28-.49-1.4,.11-2.92,0,0,.93-.3,3.03,1.13,.88-.24,1.82-.37,2.76-.37,.94,0,1.88,.13,2.76,.37,2.1-1.43,3.03-1.13,3.03-1.13,.6,1.52,.22,2.64,.11,2.92,.71,.77,1.13,1.75,1.13,2.96,0,4.23-2.58,5.17-5.03,5.44,.4,.34,.75,1.01,.75,2.04,0,1.47-.01,2.66-.01,3.02,0,.29,.2,.64,.76,.53,4.38-1.46,7.53-5.59,7.53-10.46C22.04,4.93,17.11,0,11.02,0Z"/>
</svg>