<?xml version="1.0" encoding="UTF-8"?>
<svg id="Layer_1" data-name="Layer 1" xmlns="http://www.w3.org/2000/svg" width="3947.98" height="845.95" viewBox="0 0 3947.98 845.95">
    <defs>
        <style>
            .cls-1 {
                fill: #f26627;
            }

            .cls-2 {
                fill: #325d79;
            }
        </style>
    </defs>
    <path class="cls-1" d="M239.94,749.49c-28.26-.23-52.58-4.39-72.97-12.47-20.4-8.09-36.01-20.22-46.83-36.4-10.83-16.18-16.24-36.46-16.24-60.84v-104.59c0-16.18-3.19-29.22-9.57-39.13-6.38-9.91-15.84-17.14-28.37-21.71-12.53-4.55-28.03-6.84-46.48-6.84v-47.17c18.46-.22,33.95-2.56,46.48-7.01,12.53-4.44,21.99-11.56,28.37-21.36,6.38-9.79,9.57-22.78,9.57-38.96v-105.27c0-24.38,5.69-44.6,17.09-60.67,11.39-16.06,27.29-28.08,47.68-36.06,20.39-7.97,44.15-11.96,71.26-11.96v46.48c-16.87,.46-31.27,3.08-43.24,7.86s-21.08,12.08-27.34,21.88c-6.27,9.8-9.4,22.45-9.4,37.94v102.88c0,23.7-6.04,42.72-18.12,57.08-12.08,14.35-30.65,23.81-55.71,28.37v4.1c25.52,4.33,44.2,13.67,56.05,28.03,11.85,14.36,17.77,33.5,17.77,57.42v104.93c0,15.49,3.08,28.08,9.23,37.77,6.15,9.68,15.21,16.8,27.17,21.36,11.96,4.56,26.49,6.95,43.58,7.18v47.17Z"/>
    <path class="cls-2" d="M525.7,649.94c-37.57,0-71.29-8.29-101.15-24.85-29.87-16.57-53.44-39.14-70.7-67.73-17.27-28.58-25.9-60.84-25.9-96.77,0-26.6,4.9-51.45,14.7-74.55,9.8-23.1,23.45-43.45,40.95-61.07,17.5-17.61,37.8-31.33,60.9-41.12,23.1-9.8,47.83-14.7,74.2-14.7,37.33,0,70.05,7.7,98.18,23.1,28.11,15.4,50.05,36.87,65.8,64.4,15.75,27.54,23.62,59.5,23.62,95.9,0,3.04-.12,5.48-.35,7.35-.24,1.87-.7,4.32-1.4,7.35H396.55c0,24.97,5.65,47.02,16.98,66.15,11.31,19.13,26.95,34.12,46.9,44.97,19.95,10.85,42.88,16.28,68.77,16.28,24.5,0,46.43-5.01,65.8-15.05,19.36-10.03,36.17-24.96,50.4-44.8l49.7,25.9c-17.04,28.23-40.43,50.17-70.18,65.8-29.75,15.63-62.82,23.45-99.23,23.45Zm-125.65-232.75h238c-3.27-18.43-10.45-34.59-21.52-48.48-11.08-13.88-24.97-24.73-41.65-32.55-16.69-7.81-35.06-11.72-55.12-11.72s-39.96,3.79-56.88,11.38c-16.92,7.58-30.8,18.32-41.65,32.2-10.85,13.89-17.91,30.27-21.18,49.18Z"/>
    <path class="cls-2" d="M1008.7,649.94c-27.07,0-52.45-4.79-76.12-14.35-23.69-9.57-44.51-22.98-62.48-40.25-17.97-17.26-32.02-37.45-42.17-60.55-10.15-23.1-15.22-48.18-15.22-75.25s4.9-51.39,14.7-74.38c9.8-22.98,23.56-43.16,41.3-60.55,17.73-17.38,38.5-30.98,62.3-40.77,23.8-9.8,49.58-14.7,77.35-14.7,23.57,0,45.96,3.45,67.2,10.33,21.23,6.89,39.2,16.16,53.9,27.82l-25.55,45.85c-23.57-18.2-52.39-27.3-86.45-27.3-27.07,0-50.75,6.01-71.05,18.02-20.3,12.02-36,28.17-47.08,48.48-11.08,20.3-16.62,42.7-16.62,67.2s5.71,47.89,17.15,68.07c11.43,20.19,27.36,36.17,47.78,47.95,20.42,11.79,43.92,17.67,70.53,17.67,16.56,0,32.2-2.39,46.9-7.17,14.7-4.78,27.53-11.49,38.5-20.12l25.9,45.85c-14.94,11.44-32.9,20.65-53.9,27.65s-43.29,10.5-66.85,10.5Z"/>
    <path class="cls-2" d="M1351.7,649.94c-29.4,0-52.27-9.75-68.6-29.23-16.33-19.48-24.5-46.84-24.5-82.08v-206.85h-39.9v-51.45h39.9V146.29h67.9v134.05h86.1v51.45h-86.1v202.65c0,17.73,3.5,31.38,10.5,40.95,7,9.57,17.03,14.35,30.1,14.35s24.73-3.85,35-11.55l17.15,54.25c-9.1,5.37-19.66,9.62-31.67,12.77-12.02,3.15-23.98,4.73-35.88,4.73Z"/>
    <path class="cls-2" d="M1720.95,649.94c-38.04,0-72.28-8.05-102.72-24.15-30.45-16.1-54.6-38.5-72.45-67.2-17.85-28.7-26.78-61.71-26.78-99.05s8.92-70.64,26.78-99.23c17.85-28.58,42-50.93,72.45-67.03,30.45-16.1,64.69-24.15,102.72-24.15s72.28,8.05,102.72,24.15c30.45,16.1,54.6,38.45,72.45,67.03,17.85,28.58,26.78,61.66,26.78,99.23s-8.92,70.35-26.78,99.05c-17.85,28.7-42,51.1-72.45,67.2-30.45,16.1-64.7,24.15-102.72,24.15Zm.35-59.15c24.96,0,47.37-5.6,67.2-16.8,19.83-11.2,35.46-26.71,46.9-46.55,11.43-19.83,17.15-42.46,17.15-67.9s-5.72-48.35-17.15-68.08c-11.44-19.71-27.07-35.18-46.9-46.38-19.83-11.2-42.24-16.8-67.2-16.8s-47.72,5.6-67.55,16.8c-19.83,11.2-35.47,26.66-46.9,46.38-11.44,19.72-17.15,42.41-17.15,68.08s5.71,48.07,17.15,67.9c11.43,19.83,27.06,35.35,46.9,46.55,19.83,11.2,42.35,16.8,67.55,16.8Z"/>
    <path class="cls-2" d="M2156.35,649.94c-29.4,0-52.27-9.75-68.6-29.23-16.33-19.48-24.5-46.84-24.5-82.08v-206.85h-39.9v-51.45h39.9V146.29h67.9v134.05h86.1v51.45h-86.1v202.65c0,17.73,3.5,31.38,10.5,40.95,7,9.57,17.03,14.35,30.1,14.35s24.73-3.85,35-11.55l17.15,54.25c-9.1,5.37-19.66,9.62-31.67,12.77-12.02,3.15-23.98,4.73-35.88,4.73Z"/>
    <path class="cls-2" d="M2521.4,649.94c-37.57,0-71.29-8.29-101.15-24.85-29.87-16.57-53.44-39.14-70.7-67.73-17.27-28.58-25.9-60.84-25.9-96.77,0-26.6,4.9-51.45,14.7-74.55,9.8-23.1,23.45-43.45,40.95-61.07,17.5-17.61,37.8-31.33,60.9-41.12,23.1-9.8,47.83-14.7,74.2-14.7,37.33,0,70.05,7.7,98.17,23.1,28.12,15.4,50.05,36.87,65.8,64.4,15.75,27.54,23.62,59.5,23.62,95.9,0,3.04-.12,5.48-.35,7.35-.24,1.87-.7,4.32-1.4,7.35h-308c0,24.97,5.65,47.02,16.97,66.15,11.31,19.13,26.95,34.12,46.9,44.97,19.95,10.85,42.88,16.28,68.77,16.28,24.5,0,46.43-5.01,65.8-15.05,19.37-10.03,36.17-24.96,50.4-44.8l49.7,25.9c-17.04,28.23-40.42,50.17-70.17,65.8-29.75,15.63-62.83,23.45-99.23,23.45Zm-125.65-232.75h238c-3.27-18.43-10.45-34.59-21.53-48.48-11.08-13.88-24.97-24.73-41.65-32.55-16.68-7.81-35.06-11.72-55.12-11.72s-39.96,3.79-56.88,11.38c-16.92,7.58-30.8,18.32-41.65,32.2-10.85,13.89-17.91,30.27-21.17,49.18Z"/>
    <path class="cls-2" d="M3004.39,649.94c-27.07,0-52.45-4.79-76.12-14.35-23.69-9.57-44.51-22.98-62.48-40.25-17.97-17.26-32.02-37.45-42.17-60.55-10.15-23.1-15.22-48.18-15.22-75.25s4.9-51.39,14.7-74.38c9.8-22.98,23.56-43.16,41.3-60.55,17.73-17.38,38.5-30.98,62.3-40.77,23.8-9.8,49.58-14.7,77.35-14.7,23.57,0,45.96,3.45,67.2,10.33,21.23,6.89,39.2,16.16,53.9,27.82l-25.55,45.85c-23.57-18.2-52.39-27.3-86.45-27.3-27.07,0-50.75,6.01-71.05,18.02-20.3,12.02-36,28.17-47.08,48.48-11.08,20.3-16.62,42.7-16.62,67.2s5.71,47.89,17.15,68.07c11.43,20.19,27.36,36.17,47.78,47.95,20.42,11.79,43.92,17.67,70.53,17.67,16.56,0,32.2-2.39,46.9-7.17,14.7-4.78,27.53-11.49,38.5-20.12l25.9,45.85c-14.94,11.44-32.9,20.65-53.9,27.65s-43.29,10.5-66.85,10.5Z"/>
    <path class="cls-2" d="M3251.49,638.74V36.39h67.9V326.54c10.96-16.33,26.71-29.98,47.25-40.95,20.53-10.96,44.91-16.45,73.15-16.45s51.8,5.77,72.1,17.33c20.3,11.55,35.99,28.17,47.07,49.88,11.08,21.7,16.62,47.6,16.62,77.7v224.7h-67.9v-211.05c0-33.6-8.05-59.44-24.15-77.53-16.1-18.08-38.74-27.12-67.9-27.12-20.07,0-37.28,4.09-51.62,12.25-14.35,8.17-25.38,18.96-33.08,32.38-7.7,13.42-11.55,28.06-11.55,43.93v227.15h-67.9Z"/>
    <path class="cls-1" d="M3685.98,749.49v-47.17c16.86-.46,31.22-3.02,43.07-7.69,11.85-4.67,20.9-11.85,27.17-21.53,6.26-9.69,9.4-22.28,9.4-37.77v-103.56c0-23.93,6.09-43.07,18.29-57.42,12.19-14.36,30.7-23.7,55.54-28.03v-4.1c-25.29-4.55-43.92-14.01-55.88-28.37-11.96-14.36-17.94-33.38-17.94-57.08v-103.91c0-15.72-3.08-28.48-9.23-38.28-6.15-9.79-15.16-17.03-27-21.7-11.85-4.67-26.32-7.12-43.41-7.35v-46.48c28.25,.23,52.52,4.33,72.8,12.3,20.28,7.98,35.83,20,46.66,36.06,10.82,16.06,16.24,36.4,16.24,61.01v103.91c0,16.41,3.19,29.57,9.57,39.48,6.38,9.91,15.89,17.15,28.54,21.7,12.65,4.56,28.2,6.84,46.66,6.84v47.17c-18.46,0-34.01,2.28-46.66,6.84-12.65,4.56-22.16,11.74-28.54,21.53-6.38,9.8-9.57,22.68-9.57,38.62v105.96c0,24.15-5.7,44.32-17.09,60.5-11.4,16.18-27.23,28.31-47.51,36.4-20.28,8.09-43.98,12.13-71.09,12.13Z"/>
</svg>