<?xml version="1.0" encoding="UTF-8"?>
<svg id="Layer_1" data-name="Layer 1" xmlns="http://www.w3.org/2000/svg" width="1024" height="1024" viewBox="0 0 1024 1024">
  <defs>
    <style>
      .cls-1 {
        fill: #fff;
      }
    </style>
  </defs>
  <path class="cls-1" d="M907.39,448.03c0,.24-.19,.45-.42,.45h-.04c-.24-.01-.41-.19-.42-.42,0-.16-.01-.31-.01-.47,.15,0,.31,.01,.46,.01,.24,.01,.42,.2,.43,.43Z"/>
  <path class="cls-1" d="M907.39,448.03c-.01-.24-.2-.42-.43-.43-.15,0-.31-.01-.46-.01-1.88-64.3-6.68-131.82-14.3-200.72,.04,.24,.22,.4,.45,.4h.05c.22-.02,.38-.22,.38-.43,7.62,69.07,12.44,136.76,14.31,201.2Z"/>
  <path class="cls-1" d="M906.51,448.05c.01,.24,.19,.41,.42,.42-47.94-1.32-87.34-38.42-92.15-85.56,.05,.2,.22,.35,.42,.35,.01,0,.02-.01,.04-.01,.24-.01,.42-.22,.41-.46-.01-.09-.01-.19-.02-.27,4.61,46.71,43.48,83.53,90.88,85.06,0,.16,.01,.31,.01,.47Z"/>
  <path class="cls-1" d="M892.2,246.87c7.62,68.9,12.42,136.42,14.3,200.72-47.4-1.53-86.26-38.36-90.88-85.06-.12-1.86-.25-3.7-.38-5.55-.16-2.35-.33-4.71-.51-7.08-1.97-26.75-4.43-54.21-7.33-81.63,0-.05-.02-.11-.05-.15,0,0,0-.01-.01-.01-2.91-26.64-24.32-47.99-50.97-50.83h-.02c-22.03-2.33-44.21-4.39-65.87-6.12-59.01-4.71-117.32-7.17-173.29-7.3-54.1-.09-110.27,1.93-166.95,6.09-26.77,1.97-54.23,4.44-81.61,7.33h-.02c-26.72,2.82-48.17,24.27-50.99,50.99v.05c-2.89,27.39-5.37,54.82-7.33,81.59-4.16,56.68-6.21,112.85-6.09,166.95,.12,55.97,2.59,114.28,7.3,173.29,1.73,21.66,3.8,43.8,6.12,65.84v.05c2.83,26.72,24.27,48.17,51,51h.04c27.39,2.89,54.85,5.36,81.59,7.32,55.09,4.04,109.7,6.1,162.41,6.1h4.54c55.97-.14,114.28-2.59,173.29-7.3,21.63-1.73,43.77-3.8,65.84-6.12h.05c26.64-2.82,48.05-24.17,50.97-50.79h0c.05-.07,.07-.14,.09-.21,2.34-22.08,4.39-44.24,6.12-65.89,2.56-32.02,4.47-64.01,5.67-95.07,47.99,6.82,83.05,49.7,81.01,97.51-2.15,27.76-4.86,56.31-8.02,84.85v.05c-6.72,60.66-53.73,107.67-114.39,114.4h-.05c-91.66,10.11-180.91,15.24-265.28,15.24s-173.62-5.13-265.28-15.24h-.02c-60.66-6.72-107.69-53.74-114.42-114.4v-.05c-10.11-91.64-15.24-180.9-15.24-265.28s5.13-173.62,15.24-265.27h0v-.06c6.73-60.65,53.76-107.69,114.4-114.39h.05c91.66-10.11,180.9-15.24,265.27-15.24s173.64,5.13,265.28,15.24h.05c60.66,6.72,107.67,53.74,114.39,114.39v.05Z"/>
  <path class="cls-1" d="M881.21,630.16c13.87,17.9,20.82,39.72,19.89,62.12-.04-.19-.2-.33-.4-.36-.24,0-.45,.17-.47,.41-.01,.09-.01,.17-.02,.26,2.04-47.81-33.01-90.69-81.01-97.51,.01-.16,.02-.32,.02-.48,.01-.25-.19-.45-.42-.46h.04c24.85,3.41,46.99,16.2,62.37,36.02Z"/>
  <path class="cls-1" d="M901.1,692.27s.01,.07,.01,.11c-.01,.16-.02,.33-.04,.49,.01-.21,.02-.41,.02-.61Z"/>
  <path class="cls-1" d="M901.1,692.27c0,.2-.01,.4-.02,.61-.17,2.2-.35,4.4-.53,6.62,0,.01,0,.02-.01,.05-.02,.21-.21,.37-.42,.37-.01,0-.04,0-.05-.01-.24-.02-.41-.24-.38-.48,.27-2.29,.45-4.58,.53-6.84,.01-.09,.01-.17,.02-.26,.02-.24,.24-.41,.47-.41,.2,.02,.36,.17,.4,.36Z"/>
  <path class="cls-1" d="M900.55,699.5c.19-2.21,.36-4.42,.53-6.62-.1,2.2-.27,4.4-.53,6.62Z"/>
  <path class="cls-1" d="M900.11,699.92c.21,0,.4-.16,.42-.37-2.05,25.57-4.56,51.75-7.46,77.94,0-.21-.16-.41-.38-.43-.26-.01-.46,.15-.49,.38,3.15-28.55,5.86-57.1,8.02-84.85-.09,2.26-.26,4.55-.53,6.84-.02,.25,.15,.46,.38,.48,.01,.01,.04,.01,.05,.01Z"/>
  <path class="cls-1" d="M893.08,777.49v.05c-.02,.22-.21,.4-.43,.4-.02,0-.04-.01-.05-.01-.24-.02-.4-.21-.4-.43v-.05c.04-.24,.24-.4,.49-.38,.22,.02,.38,.22,.38,.43Z"/>
  <path class="cls-1" d="M893.08,246.78v.05c0,.21-.16,.41-.38,.43h-.05c-.22,0-.41-.16-.45-.4v-.05c0-.21,.16-.4,.4-.43,.26-.01,.46,.15,.48,.4Z"/>
  <path class="cls-1" d="M892.64,777.93c.22,0,.41-.17,.43-.4-3.24,29.33-16.51,56.97-37.38,77.84-20.87,20.87-48.51,34.14-77.84,37.38,.24-.02,.42-.25,.38-.48-.02-.22-.2-.38-.43-.38,60.66-6.73,107.67-53.74,114.39-114.4,0,.22,.16,.41,.4,.43,.01,0,.02,.01,.05,.01Z"/>
  <path class="cls-1" d="M893.08,246.78c-.02-.25-.22-.41-.48-.4-.24,.04-.4,.22-.4,.43-6.72-60.65-53.73-107.67-114.39-114.39,.22,0,.41-.16,.43-.38,.04-.25-.15-.46-.38-.48,29.33,3.23,56.97,16.5,77.84,37.37,20.87,20.87,34.14,48.51,37.38,77.85Z"/>
  <path class="cls-1" d="M818.81,594.14c.24,.01,.43,.21,.42,.46,0,.16-.01,.32-.02,.48-.16-.02-.31-.05-.47-.07-.24-.02-.38-.22-.38-.43h0c0-.06,.01-.1,.02-.14,.04-.11,.12-.21,.25-.26,.05-.01,.1-.02,.16-.04h.02Z"/>
  <path class="cls-1" d="M818.74,595c.16,.02,.31,.05,.47,.07-1.2,31.06-3.1,63.05-5.67,95.07-1.73,21.65-3.79,43.81-6.12,65.89-.01,.07-.04,.14-.09,.2,.01-.06,.01-.14,.02-.2,.02-.24-.16-.46-.4-.48-.16-.01-.3,.05-.38,.17,2.31-21.99,4.37-44.08,6.09-65.66,2.57-32.17,4.49-64.3,5.69-95.5,0,.21,.15,.41,.38,.43Z"/>
  <path class="cls-1" d="M818.79,594.14c-.06,.01-.11,.02-.16,.04,.05-.02,.1-.04,.16-.04Z"/>
  <path class="cls-1" d="M818.35,594.52s.01-.06,.02-.09c-.01,.04-.02,.07-.02,.12v-.04Z"/>
  <path class="cls-1" d="M815.64,362.79c.01,.24-.17,.45-.41,.46-.01,0-.02,.01-.04,.01-.2,0-.37-.15-.42-.35,0-.01-.01-.02,0-.04l-.04-.33c-.12-1.84-.25-3.69-.38-5.53v-.05c.01-.24,.19-.41,.42-.42s.45,.19,.46,.42c.07,1.87,.2,3.72,.38,5.55,.01,.09,.01,.19,.02,.27Z"/>
  <path class="cls-1" d="M815.24,356.97c.14,1.86,.26,3.7,.38,5.55-.19-1.83-.31-3.69-.38-5.55Z"/>
  <path class="cls-1" d="M814.73,349.89c.17,2.36,.35,4.73,.51,7.08-.01-.24-.22-.43-.46-.42s-.41,.19-.42,.42c-.16-2.34-.33-4.68-.51-7.01-1.97-26.68-4.42-54.07-7.3-81.4,.07,.12,.21,.21,.37,.21h.04c.25-.02,.42-.25,.4-.48,0-.05-.01-.11-.01-.16,.02,.04,.05,.1,.05,.15,2.91,27.41,5.37,54.87,7.33,81.63Z"/>
  <path class="cls-1" d="M814.74,362.55l.04,.33s-.01-.02-.01-.04c-.01-.1-.01-.2-.02-.3Z"/>
  <path class="cls-1" d="M814.36,357.02c.14,1.84,.26,3.69,.38,5.53-.19-1.83-.31-3.67-.38-5.53Z"/>
  <path class="cls-1" d="M806.96,755.56c.24,.02,.42,.25,.4,.48-.01,.06-.01,.14-.02,.2h0c-.07,.12-.2,.2-.35,.2-.01,0-.04,0-.05-.01-.24-.02-.41-.24-.38-.48,.01-.07,.01-.14,.02-.21,.09-.12,.22-.19,.38-.17Z"/>
  <path class="cls-1" d="M807.36,268.28c.02,.24-.15,.46-.4,.48h-.04c-.16,0-.3-.09-.37-.21-.01-.06-.01-.12-.02-.19-.02-.25,.15-.46,.38-.48,.2-.02,.36,.07,.42,.22,.01,0,.01,.01,.01,.01,0,.05,.01,.11,.01,.16Z"/>
  <path class="cls-1" d="M806.99,756.43c.15,0,.27-.07,.35-.19-2.92,26.62-24.33,47.97-50.97,50.79,.24-.02,.42-.25,.4-.48-.04-.24-.21-.4-.43-.4,26.28-2.81,47.37-23.91,50.16-50.21,.01-.09,.04-.16,.1-.22-.01,.07-.01,.14-.02,.21-.02,.25,.15,.46,.38,.48,.01,.01,.04,.01,.05,.01Z"/>
  <path class="cls-1" d="M807.33,268.11c-.06-.15-.22-.25-.42-.22-.24,.02-.41,.24-.38,.48,.01,.06,.01,.12,.02,.19-.05-.06-.06-.12-.07-.19-2.78-26.3-23.87-47.4-50.16-50.21,.21,0,.41-.17,.43-.4,.02-.24-.15-.46-.4-.48,26.66,2.83,48.07,24.18,50.97,50.83Z"/>
  <path class="cls-1" d="M778.24,892.27c.04,.24-.15,.46-.38,.48h-.05c-.22,0-.41-.16-.43-.38-.02-.25,.15-.46,.38-.48h.05c.24,0,.41,.16,.43,.38Z"/>
  <path class="cls-1" d="M777.86,131.56c.24,.02,.42,.24,.38,.48-.02,.22-.21,.38-.43,.38h-.05c-.24-.02-.41-.24-.38-.48,.02-.22,.2-.38,.43-.38h.05Z"/>
  <path class="cls-1" d="M777.81,131.56c-.24,0-.41,.16-.43,.38-.02,.25,.15,.46,.38,.48-91.64-10.11-180.9-15.24-265.28-15.24s-173.62,5.13-265.27,15.24c.24-.04,.41-.24,.38-.48-.02-.22-.22-.38-.43-.38,91.67-10.12,180.93-15.25,265.32-15.25s173.67,5.13,265.33,15.25Z"/>
  <path class="cls-1" d="M777.37,892.37c.02,.22,.21,.38,.43,.38-91.68,10.12-180.94,15.24-265.33,15.24s-173.65-5.12-265.32-15.24c.21,0,.41-.16,.43-.38,.02-.25-.15-.46-.4-.48,91.67,10.11,180.91,15.24,265.28,15.24s173.63-5.13,265.28-15.24c-.24,.02-.41,.24-.38,.48Z"/>
  <path class="cls-1" d="M756.75,806.55c.02,.24-.16,.46-.4,.48h-.05c-.22,0-.41-.17-.43-.4-.02-.24,.15-.46,.4-.48h.05c.22,0,.4,.16,.43,.4Z"/>
  <path class="cls-1" d="M756.36,217.28c.25,.02,.42,.25,.4,.48-.02,.22-.22,.4-.43,.4h-.05c-.25-.02-.42-.25-.4-.48s.22-.4,.46-.4h.02Z"/>
  <path class="cls-1" d="M756.33,217.28c-.24,0-.43,.16-.46,.4s.15,.46,.4,.48c-22.04-2.34-44.21-4.39-65.87-6.12-59-4.73-117.29-7.17-173.23-7.3-54.09-.14-110.24,1.93-166.89,6.09-26.77,1.97-54.2,4.43-81.59,7.32,.24-.04,.4-.24,.37-.48-.02-.22-.22-.38-.46-.38,27.39-2.89,54.85-5.37,81.61-7.33,56.68-4.16,112.85-6.17,166.95-6.09,55.97,.12,114.28,2.59,173.29,7.3,21.66,1.73,43.84,3.8,65.87,6.12Z"/>
  <path class="cls-1" d="M755.88,806.64c.02,.22,.21,.4,.43,.4-22.07,2.33-44.21,4.39-65.84,6.12-59.01,4.71-117.32,7.16-173.29,7.3h-4.54c-52.71,0-107.32-2.05-162.41-6.1-26.74-1.97-54.2-4.43-81.59-7.32,.22,0,.42-.17,.45-.4,.02-.24-.15-.46-.4-.48,27.4,2.91,54.86,5.37,81.6,7.33,56.65,4.16,112.81,6.2,166.89,6.09,55.95-.12,114.23-2.59,173.23-7.3,21.63-1.73,43.79-3.79,65.87-6.12-.25,.02-.42,.25-.4,.48Z"/>
  <path class="cls-1" d="M591.26,476.7c24.38,0,44.21,19.83,44.21,44.21s-19.83,44.21-44.21,44.21h-133.98c.17-.3,.33-.58,.49-.88h133.49c23.9,0,43.33-19.43,43.33-43.33s-19.43-43.33-43.33-43.33h-133.49c-.16-.3-.32-.58-.49-.88h133.98Z"/>
  <path class="cls-1" d="M591.26,477.58c23.9,0,43.33,19.43,43.33,43.33s-19.43,43.33-43.33,43.33h-133.49c7.29-12.8,11.44-27.58,11.44-43.33s-4.16-30.53-11.44-43.33h133.49Z"/>
  <path class="cls-1" d="M457.77,477.58c7.29,12.8,11.44,27.58,11.44,43.33s-4.16,30.53-11.44,43.33h-1c7.36-12.77,11.57-27.57,11.57-43.33s-4.21-30.56-11.57-43.33h1Z"/>
  <path class="cls-1" d="M457.77,477.58h-1c-.17-.3-.35-.59-.52-.88h1.03c.17,.3,.33,.58,.49,.88Z"/>
  <path class="cls-1" d="M456.77,564.24h1c-.16,.3-.32,.58-.49,.88h-1.03c.17-.28,.35-.58,.52-.88Z"/>
  <path class="cls-1" d="M457.28,476.7h-1.03c-15.16-25.65-43.12-42.9-75.02-42.9-48.03,0-87.1,39.07-87.1,87.1s39.07,87.1,87.1,87.1c31.9,0,59.86-17.24,75.02-42.9h1.03c-15.26,26.16-43.64,43.77-76.05,43.77-48.51,0-87.98-39.47-87.98-87.98s39.47-87.98,87.98-87.98c32.41,0,60.78,17.61,76.05,43.77Z"/>
  <path class="cls-1" d="M456.77,477.58c7.36,12.77,11.57,27.57,11.57,43.33s-4.21,30.56-11.57,43.33h-75.54c-23.9,0-43.34-19.43-43.34-43.33s19.44-43.33,43.34-43.33h75.54Z"/>
  <path class="cls-1" d="M456.77,564.24c-.17,.3-.35,.59-.52,.88h-75.02c-24.38,0-44.21-19.83-44.21-44.21s19.83-44.21,44.21-44.21h75.02c.17,.28,.35,.58,.52,.88h-75.54c-23.9,0-43.34,19.43-43.34,43.33s19.44,43.33,43.34,43.33h75.54Z"/>
  <path class="cls-1" d="M456.25,476.7h-75.02c-24.38,0-44.21,19.83-44.21,44.21s19.83,44.21,44.21,44.21h75.02c-15.16,25.65-43.12,42.9-75.02,42.9-48.03,0-87.1-39.07-87.1-87.1s39.07-87.1,87.1-87.1c31.9,0,59.86,17.24,75.02,42.9Z"/>
  <path class="cls-1" d="M268.69,806.16c.25,.02,.42,.25,.4,.48-.02,.22-.22,.4-.45,.4h-.04c-.25-.02-.42-.25-.4-.48s.25-.4,.46-.4h.02Z"/>
  <path class="cls-1" d="M269.07,217.66c.02,.25-.14,.45-.37,.48h-.06c-.21,0-.41-.16-.43-.38-.02-.25,.15-.46,.38-.48h.02c.24,0,.43,.16,.46,.38Z"/>
  <path class="cls-1" d="M268.2,217.76c.02,.22,.22,.38,.43,.38-26.27,2.81-47.36,23.9-50.17,50.17,0-.22-.16-.41-.38-.43-.24-.01-.46,.15-.48,.38,2.82-26.72,24.27-48.17,50.99-50.99-.24,.02-.41,.24-.38,.48Z"/>
  <path class="cls-1" d="M268.66,806.16c-.21,0-.43,.16-.46,.4s.15,.46,.4,.48c-26.73-2.83-48.17-24.28-51-51,.02,.22,.21,.4,.43,.4h.05c.24-.02,.4-.22,.4-.43,2.81,26.27,23.9,47.36,50.18,50.16Z"/>
  <path class="cls-1" d="M247.19,891.89c.25,.02,.42,.24,.4,.48-.02,.22-.22,.38-.43,.38h-.05c-.25-.02-.42-.25-.4-.48,.04-.22,.25-.38,.46-.38h.02Z"/>
  <path class="cls-1" d="M247.58,131.94c.02,.25-.15,.45-.38,.48h-.05c-.21,0-.41-.16-.45-.38-.02-.25,.15-.46,.4-.48h.05c.21,0,.41,.16,.43,.38Z"/>
  <path class="cls-1" d="M246.71,132.04c.04,.22,.24,.38,.45,.38-60.65,6.7-107.67,53.74-114.4,114.39,0-.21-.16-.4-.38-.43-.24-.01-.46,.15-.48,.4,3.23-29.34,16.51-56.99,37.37-77.85,20.87-20.87,48.51-34.14,77.85-37.37-.25,.02-.42,.24-.4,.48Z"/>
  <path class="cls-1" d="M247.16,891.89c-.21,0-.42,.16-.46,.38-.02,.24,.15,.46,.4,.48-29.34-3.24-56.99-16.51-77.85-37.38-20.85-20.87-34.14-48.51-37.37-77.84,.02,.22,.21,.4,.43,.4,.01,0,.04-.01,.05-.01,.22-.02,.38-.21,.38-.43,6.73,60.66,53.76,107.69,114.42,114.4Z"/>
  <path class="cls-1" d="M218.48,755.95v.05c0,.21-.16,.41-.4,.43h-.05c-.22,0-.41-.17-.43-.4v-.05c0-.21,.16-.41,.4-.43,.24-.01,.46,.15,.48,.4Z"/>
  <path class="cls-1" d="M218.47,268.32v.05c-.02,.22-.21,.4-.43,.4-.01,0-.02-.01-.05-.01-.22-.02-.38-.21-.38-.43v-.05c.02-.24,.25-.4,.48-.38,.22,.02,.38,.21,.38,.43Z"/>
  <path class="cls-1" d="M218.03,268.76c.22,0,.41-.17,.43-.4-2.89,27.37-5.36,54.83-7.32,81.6-4.16,56.66-6.21,112.81-6.09,166.89,.12,55.95,2.59,114.23,7.3,173.23,1.73,21.66,3.79,43.81,6.12,65.87-.02-.25-.25-.41-.48-.4-.24,.02-.4,.22-.4,.43-2.33-22.04-4.39-44.18-6.12-65.84-4.71-59.01-7.17-117.32-7.3-173.29-.12-54.1,1.93-110.27,6.09-166.95,1.97-26.77,4.44-54.2,7.33-81.59,0,.22,.16,.41,.38,.43,.02,0,.04,.01,.05,.01Z"/>
  <path class="cls-1" d="M132.75,246.82v.05h0c-.04,.24-.21,.4-.43,.4h-.05c-.22-.02-.38-.22-.38-.43v-.05c.02-.25,.25-.41,.48-.4,.22,.04,.38,.22,.38,.43Z"/>
  <path class="cls-1" d="M132.75,777.44v.05c0,.22-.16,.41-.38,.43-.01,0-.04,.01-.05,.01-.22,0-.41-.17-.43-.4v-.05c0-.21,.16-.41,.38-.43,.24-.01,.46,.15,.48,.38Z"/>
  <path class="cls-1" d="M132.31,247.26c.22,0,.4-.16,.43-.38-10.11,91.66-15.24,180.9-15.24,265.27s5.13,173.64,15.24,265.28c-.02-.24-.25-.4-.48-.38-.22,.02-.38,.22-.38,.43-10.12-91.67-15.25-180.93-15.25-265.33s5.13-173.65,15.25-265.32c0,.21,.16,.41,.38,.43h.05Z"/>
</svg>