<?xml version="1.0" encoding="UTF-8"?>
<svg id="Layer_1" data-name="Layer 1" xmlns="http://www.w3.org/2000/svg" width="1600" height="512" xmlns:xlink="http://www.w3.org/1999/xlink" viewBox="0 0 1600 512">
  <defs>
    <style>
      .cls-1 {
        clip-path: url(#clippath-2);
      }

      .cls-2, .cls-3 {
        fill: #333;
      }

      .cls-4 {
        clip-path: url(#clippath-1);
      }

      .cls-5 {
        clip-path: url(#clippath);
      }

      .cls-6 {
        fill: none;
      }

      .cls-3 {
        font-family: Roboto-Light, Roboto;
        font-size: 280px;
      }

      .cls-7 {
        letter-spacing: 0em;
      }
    </style>
    <clipPath id="clippath">
      <rect class="cls-6" x="20.55" y="65.67" width="379.6" height="380.04"/>
    </clipPath>
    <clipPath id="clippath-1">
      <rect class="cls-6" x="20.7" y="65.82" width="379.3" height="379.75"/>
    </clipPath>
    <clipPath id="clippath-2">
      <rect class="cls-6" x="20.7" y="65.82" width="379.3" height="379.75"/>
    </clipPath>
  </defs>
  <g id="Group_8" data-name="Group 8">
    <g class="cls-5">
      <g id="Group_7" data-name="Group 7">
        <g id="Group_6" data-name="Group 6" transform="translate(0.015 0.015)">
          <g class="cls-4">
            <g id="Group_5" data-name="Group 5">
              <g id="Group_4" data-name="Group 4">
                <g class="cls-1">
                  <g id="Group_3" data-name="Group 3">
                    <path id="Path_16" data-name="Path 16" class="cls-2" d="M183.6,238.69h-35.98c-11.71-.26-21.41,9.03-21.67,20.74-.26,11.71,9.03,21.41,20.74,21.67,.31,0,.62,0,.93,0h35.98c-11.71,19.88-37.32,26.5-57.2,14.79-19.88-11.71-26.5-37.32-14.79-57.2,11.71-19.88,37.32-26.5,57.2-14.79,6.11,3.6,11.2,8.69,14.79,14.79"/>
                    <path id="Path_17" data-name="Path 17" class="cls-2" d="M183.85,239.1c7.4,12.87,7.4,28.7,0,41.57h-36.26c-11.48,.25-20.99-8.85-21.24-20.33-.25-11.48,8.85-20.99,20.33-21.24,.3,0,.61,0,.91,0h36.26Z"/>
                    <path id="Path_18" data-name="Path 18" class="cls-2" d="M248.37,239.1c11.48-.25,20.99,8.85,21.24,20.33s-8.85,20.99-20.33,21.24c-.3,0-.61,0-.91,0h-64.03c7.32-12.89,7.32-28.68,0-41.57h64.03Z"/>
                    <path id="Path_19" data-name="Path 19" class="cls-2" d="M392.71,128.44c3.66,33.08,5.95,65.43,6.86,96.28-22.68-.8-41.28-18.21-43.58-40.79-.06-.89-.12-1.77-.18-2.67-.08-1.12-.16-2.27-.24-3.4-.94-12.83-2.13-26-3.52-39.15,0-.02,0-.05,0-.07h0c-1.45-12.86-11.62-23-24.49-24.4h0c-10.56-1.11-21.21-2.1-31.59-2.94-28.31-2.27-56.27-3.44-83.13-3.5-25.95,0-52.89,.92-80.08,2.92-12.84,.94-26.06,2.14-39.15,3.52h0c-12.88,1.41-23.05,11.58-24.46,24.46h0c-1.39,13.13-2.58,26.29-3.52,39.09-2,27.18-3.01,54.13-2.92,80.08,.06,26.84,1.24,54.82,3.5,83.13,.83,10.38,1.82,21.05,2.94,31.58h0c1.42,12.88,11.59,23.04,24.47,24.46h0c13.14,1.39,26.31,2.57,39.09,3.51,26.42,1.94,52.62,2.93,77.9,2.93h2.18c26.84-.07,54.82-1.24,83.13-3.5,10.37-.83,21-1.82,31.58-2.94h0c12.84-1.41,22.99-11.53,24.45-24.36h0s0-.06,0-.09c1.12-10.59,2.1-21.22,2.94-31.6,1.23-15.37,2.15-30.7,2.72-45.61,22.99,3.39,39.74,23.55,38.86,46.77-1,13.31-2.34,27-3.85,40.71h0c-3.07,28.94-25.93,51.81-54.87,54.88h0c-42.27,4.75-84.76,7.19-127.3,7.31-42.53-.12-85.03-2.55-127.3-7.31h0c-28.94-3.07-51.81-25.94-54.88-54.88h0c-4.75-42.27-7.19-84.76-7.31-127.3,.17-42.48,2.67-84.91,7.47-127.12h0c3.06-28.95,25.93-51.83,54.88-54.9h0c42.26-4.75,84.74-7.19,127.27-7.31,42.53,.11,85.03,2.55,127.3,7.31h0c28.93,3.08,51.78,25.94,54.84,54.87v.03Z"/>
                    <path id="Path_20" data-name="Path 20" class="cls-2" d="M400.01,224.93c0,.11-.09,.21-.2,.21h0c-.11,0-.2-.09-.2-.2v-.22h.22c.11,0,.21,.1,.21,.21"/>
                    <path id="Path_21" data-name="Path 21" class="cls-2" d="M397,342.1s0,.03,0,.05v.24c0-.1,0-.19,0-.29"/>
                    <path id="Path_22" data-name="Path 22" class="cls-2" d="M396.72,345.57c.09-1.06,.17-2.12,.25-3.18,0,1.05-.13,2.11-.25,3.18"/>
                    <path id="Path_23" data-name="Path 23" class="cls-2" d="M396.99,342.09c0,.1,0,.19,0,.29-.08,1.05-.17,2.11-.25,3.18h0c-.01,.1-.1,.18-.2,.18h0c-.11-.02-.19-.12-.18-.23,.13-1.1,.21-2.19,.25-3.28v-.12c.01-.12,.11-.21,.23-.2,.09,.01,.17,.08,.19,.17"/>
                    <path id="Path_24" data-name="Path 24" class="cls-2" d="M392.72,128.41c0-.11,.08-.2,.19-.21,.12-.01,.22,.07,.23,.19h0c0,.11-.08,.2-.18,.21h0c-.11,0-.2-.08-.21-.19h-.03Z"/>
                    <path id="Path_25" data-name="Path 25" class="cls-2" d="M392.94,128.63h0c.1-.02,.18-.11,.18-.21,3.66,33.13,6.01,65.59,6.87,96.51,0-.11-.1-.21-.21-.21h-.22c-.9-30.84-3.21-63.23-6.86-96.28,.01,.11,.1,.19,.21,.19"/>
                    <path id="Path_26" data-name="Path 26" class="cls-2" d="M392.94,383.18h0c-.11-.01-.19-.1-.19-.21h0c.02-.11,.13-.19,.24-.18,.1,.02,.18,.11,.18,.21h0c-.01,.11-.1,.19-.21,.19"/>
                    <path id="Path_27" data-name="Path 27" class="cls-2" d="M392.72,382.96c1.51-13.69,2.82-27.38,3.85-40.71-.04,1.09-.12,2.18-.25,3.28-.01,.11,.07,.22,.18,.23h0c.1,0,.19-.08,.2-.18-1,12.27-2.19,24.83-3.58,37.39,0-.11-.08-.2-.18-.21-.12-.01-.22,.07-.24,.18"/>
                    <path id="Path_28" data-name="Path 28" class="cls-2" d="M396.56,342.24c.87-23.22-15.87-43.38-38.86-46.77v-.23c0-.12-.08-.21-.2-.22h0c23.32,3.19,40.4,23.59,39.45,47.11-.02-.09-.1-.16-.19-.17-.12,0-.22,.09-.23,.2v.12"/>
                    <path id="Path_29" data-name="Path 29" class="cls-2" d="M357.52,295.02c.12,0,.21,.1,.2,.22h0v.23h-.22c-.1-.01-.18-.1-.18-.21h0s0-.04,0-.06c.02-.06,.07-.1,.12-.12h.08v-.06Z"/>
                    <path id="Path_31" data-name="Path 31" class="cls-2" d="M357.3,295.2h0s0,.04,0,.06v-.06Z"/>
                    <path id="Path_32" data-name="Path 32" class="cls-2" d="M355.99,183.95c2.29,22.59,20.91,40.01,43.59,40.81v.22c0,.11,.09,.2,.2,.2-22.93-.69-41.81-18.22-44.2-41.04,.02,.1,.1,.17,.2,.17h0c.12,0,.21-.1,.2-.22h0v-.13"/>
                    <path id="Path_33" data-name="Path 33" class="cls-2" d="M356.01,184.05c0,.12-.08,.21-.2,.22h0c-.1,0-.18-.07-.2-.17h0v-.16c-.06-.88-.12-1.76-.18-2.66h0c0-.11,.09-.2,.2-.2,.12,0,.21,.08,.22,.2h0c0,.89,.1,1.78,.18,2.67v.13"/>
                    <path id="Path_34" data-name="Path 34" class="cls-2" d="M355.81,181.25c.07,.89,.13,1.77,.18,2.67-.09-.88-.15-1.76-.18-2.67"/>
                    <path id="Path_36" data-name="Path 36" class="cls-2" d="M355.39,181.28c.07,.88,.12,1.76,.18,2.66-.09-.88-.15-1.76-.18-2.66"/>
                    <path id="Path_37" data-name="Path 37" class="cls-2" d="M351.83,372.43c-.07,0-.14,.02-.18,.08,1.11-10.54,2.09-21.15,2.92-31.49,1.23-15.44,2.16-30.84,2.73-45.81,0,.11,.07,.2,.18,.21h.23c-.57,14.89-1.49,30.24-2.72,45.61-.83,10.38-1.81,21.05-2.94,31.6,0,.03,0,.06,0,.09v-.09c0-.11-.08-.22-.19-.23"/>
                    <path id="Path_38" data-name="Path 38" class="cls-2" d="M351.84,138.95c.12-.01,.2-.11,.19-.23h0v-.08s0,.05,0,.07c1.39,13.15,2.58,26.32,3.52,39.15,.08,1.13,.17,2.27,.24,3.4-.01-.11-.11-.2-.22-.2-.11,0-.2,.09-.2,.2l-.24-3.37c-.94-12.8-2.11-25.93-3.5-39.09,.04,.06,.11,.1,.18,.1l.03,.05Z"/>
                    <path id="Path_39" data-name="Path 39" class="cls-2" d="M351.84,372.45c.11,.02,.2,.12,.19,.23v.09h0c-.04,.06-.1,.09-.17,.09h0c-.11-.02-.19-.12-.18-.23v-.1c.04-.06,.11-.09,.18-.08"/>
                    <path id="Path_40" data-name="Path 40" class="cls-2" d="M352.03,138.67c.01,.12-.07,.22-.19,.23h0c-.07,0-.14-.04-.18-.1v-.09c-.01-.11,.07-.21,.18-.23,.08-.01,.17,.03,.2,.11h0v.08"/>
                    <path id="Path_41" data-name="Path 41" class="cls-2" d="M375.2,91.06c10.03,10.06,16.36,23.23,17.93,37.35-.01-.12-.11-.2-.23-.19h0c-.11,.01-.19,.1-.19,.21-3.07-28.94-25.93-51.8-54.87-54.87,.11-.03,.18-.14,.16-.25-.02-.08-.08-.14-.16-.16,14.12,1.57,27.28,7.89,37.34,17.92"/>
                    <path id="Path_42" data-name="Path 42" class="cls-2" d="M392.91,383.19h0c.11,0,.2-.08,.21-.19-3.21,29.09-26.18,52.06-55.27,55.27,.11-.02,.19-.12,.18-.23-.01-.11-.1-.19-.21-.18,28.94-3.07,51.8-25.94,54.87-54.88,0,.11,.08,.2,.19,.21"/>
                    <path id="Path_43" data-name="Path 43" class="cls-2" d="M337.88,73.13c.11,.03,.18,.14,.16,.25-.02,.08-.08,.14-.16,.16h0c-.11-.02-.19-.12-.18-.23,.01-.11,.1-.19,.21-.18h-.03Z"/>
                    <path id="Path_44" data-name="Path 44" class="cls-2" d="M338.07,438.02c.01,.11-.07,.22-.18,.23h0c-.11-.03-.19-.14-.16-.25,.02-.08,.08-.14,.16-.16h0c.11,0,.2,.07,.21,.18"/>
                    <path id="Path_45" data-name="Path 45" class="cls-2" d="M327.75,114.47c.01-.12-.07-.22-.19-.23h0c12.84,1.42,22.99,11.54,24.45,24.38-.03-.08-.12-.12-.2-.11-.11,.02-.19,.12-.18,.23v.09s0-.06,0-.09c-1.4-12.66-11.4-22.65-24.06-24.06,.11,0,.2-.08,.21-.19"/>
                    <path id="Path_46" data-name="Path 46" class="cls-2" d="M327.54,396.72c12.66-1.4,22.65-11.4,24.06-24.06-.01-.04-.01-.07,0-.11v.1c-.01,.11,.07,.22,.18,.23h0c.07,0,.13-.03,.17-.09-1.46,12.83-11.61,22.94-24.45,24.36,.11-.02,.2-.12,.19-.23-.01-.11-.1-.19-.21-.19"/>
                    <path id="Path_47" data-name="Path 47" class="cls-2" d="M327.75,114.47c-.01,.11-.1,.19-.21,.19h0c-.12-.01-.2-.11-.19-.23h0c.01-.11,.11-.2,.22-.19h0c.12,.01,.2,.11,.19,.23h0"/>
                    <path id="Path_48" data-name="Path 48" class="cls-2" d="M327.75,396.91c0,.11-.08,.22-.19,.23h0c-.12,0-.21-.1-.21-.21,0-.11,.09-.2,.21-.21h0c.11,0,.2,.08,.21,.19"/>
                    <path id="Path_49" data-name="Path 49" class="cls-2" d="M248.38,280.7c11.48-.25,20.58-9.76,20.33-21.24-.24-11.12-9.2-20.08-20.33-20.33h-64.03l-.24-.42h64.27c11.71,.26,21,9.96,20.74,21.67-.25,11.35-9.39,20.49-20.74,20.74h-64.27l.24-.42h64.03Z"/>
                    <path id="Path_50" data-name="Path 50" class="cls-2" d="M184.33,239.1c7.32,12.89,7.32,28.68,0,41.57h-.48c7.4-12.87,7.4-28.7,0-41.57h.48Z"/>
                    <path id="Path_51" data-name="Path 51" class="cls-2" d="M184.34,239.1h-.48l-.25-.42h.49l.24,.42"/>
                    <path id="Path_52" data-name="Path 52" class="cls-2" d="M183.86,280.68h.48l-.24,.42h-.49l.25-.42"/>
                    <path id="Path_53" data-name="Path 53" class="cls-2" d="M147.63,239.1c-11.48-.25-20.99,8.85-21.24,20.33-.25,11.48,8.85,20.99,20.33,21.24,.3,0,.61,0,.91,0h36.24l-.25,.42h-35.98c-11.71-.26-21-9.96-20.74-21.67,.25-11.35,9.39-20.49,20.74-20.74h35.98l.25,.42h-36.24Z"/>
                    <path id="Path_54" data-name="Path 54" class="cls-2" d="M147.62,301.72c14.79,0,28.48-7.83,35.98-20.58h.49c-11.71,20.15-37.54,26.99-57.69,15.28-20.15-11.71-26.99-37.54-15.28-57.69,11.71-20.15,37.54-26.99,57.69-15.28,6.33,3.68,11.6,8.95,15.28,15.28h-.49c-11.71-19.88-37.32-26.5-57.2-14.78-19.88,11.71-26.5,37.33-14.78,57.2,7.51,12.75,21.21,20.57,36,20.57"/>
                    <path id="Path_55" data-name="Path 55" class="cls-2" d="M212.83,403.16c26.83-.06,54.79-1.24,83.1-3.5,10.37-.83,21.05-1.81,31.59-2.94-.12,0-.21,.1-.21,.21,0,.11,.09,.2,.21,.21-10.58,1.11-21.21,2.11-31.58,2.94-28.31,2.26-56.27,3.44-83.13,3.5h-2.18c-25.28,0-51.48-1-77.9-2.93-12.83-.94-26-2.12-39.09-3.52,.11,0,.2-.08,.21-.19,.01-.12-.07-.22-.19-.23h0c13.14,1.39,26.31,2.58,39.09,3.52,27.17,2,54.13,3.01,80.05,2.92"/>
                    <path id="Path_56" data-name="Path 56" class="cls-2" d="M295.9,111.74c-28.31-2.27-56.26-3.44-83.1-3.5-25.94-.07-52.87,.92-80.05,2.92-12.84,.94-26,2.12-39.09,3.51,.11-.02,.19-.12,.18-.23-.02-.11-.11-.19-.22-.18,13.14-1.39,26.31-2.58,39.15-3.52,27.18-2,54.13-3.01,80.08-2.92,26.84,.06,54.82,1.24,83.13,3.5,10.38,.83,21.05,1.82,31.59,2.94-.12,0-.21,.09-.21,.21,0,.12,.09,.21,.21,.21-10.57-1.12-21.21-2.1-31.59-2.94"/>
                    <path id="Path_57" data-name="Path 57" class="cls-2" d="M93.62,396.72h0c.12,.01,.2,.11,.19,.23h0c-.01,.11-.1,.19-.21,.19h0c-.12-.01-.2-.11-.19-.23h0c.02-.11,.11-.19,.22-.19"/>
                    <path id="Path_58" data-name="Path 58" class="cls-2" d="M93.82,114.47c.01,.11-.07,.21-.18,.23h0c-.11,0-.2-.08-.21-.18-.01-.11,.07-.21,.18-.23h0c.11,0,.21,.07,.22,.18"/>
                    <path id="Path_59" data-name="Path 59" class="cls-2" d="M337.85,438.25c-84.57,9.75-169.97,9.75-254.54,0,.11-.03,.19-.14,.16-.25-.02-.08-.08-.14-.16-.16,84.55,9.75,169.95,9.75,254.5,0-.11,.03-.19,.14-.16,.25,.02,.08,.08,.14,.16,.16"/>
                    <path id="Path_60" data-name="Path 60" class="cls-2" d="M210.58,65.82c42.53,.12,85.03,2.56,127.3,7.32-.11,0-.2,.07-.21,.18-.01,.11,.07,.21,.18,.23-84.55-9.75-169.95-9.75-254.5,0,.11-.03,.19-.14,.16-.25-.02-.08-.08-.14-.16-.16,42.27-4.76,84.76-7.2,127.3-7.32"/>
                    <path id="Path_61" data-name="Path 61" class="cls-2" d="M83.32,438.25h0c-.12-.01-.2-.11-.19-.23h0c.02-.11,.11-.18,.22-.18h0c.11,.03,.19,.14,.16,.25-.02,.08-.08,.14-.16,.16"/>
                    <path id="Path_62" data-name="Path 62" class="cls-2" d="M83.32,73.55c-.1,0-.19-.08-.21-.18-.01-.12,.07-.22,.19-.23h0c.11,.03,.19,.14,.16,.25-.02,.08-.08,.14-.16,.16h.02Z"/>
                    <path id="Path_63" data-name="Path 63" class="cls-2" d="M93.61,114.66c-12.66,1.41-22.65,11.4-24.06,24.06,0-.1-.1-.19-.2-.19-.11,0-.21,.07-.23,.18,1.41-12.88,11.58-23.05,24.46-24.46-.11,.02-.19,.12-.18,.23,.02,.1,.11,.18,.21,.18"/>
                    <path id="Path_64" data-name="Path 64" class="cls-2" d="M69.55,372.66c1.4,12.66,11.4,22.65,24.06,24.06-.11,0-.21,.08-.22,.19-.01,.12,.07,.22,.19,.23h0c-12.88-1.42-23.05-11.58-24.47-24.46,.01,.11,.1,.19,.21,.19h0c.11-.01,.19-.1,.19-.21"/>
                    <path id="Path_65" data-name="Path 65" class="cls-2" d="M69.54,138.73h0c-.01,.11-.1,.19-.21,.19h0c-.1-.02-.18-.11-.18-.21h0c.02-.11,.12-.19,.23-.18,.1,.02,.18,.11,.18,.21"/>
                    <path id="Path_66" data-name="Path 66" class="cls-2" d="M69.55,372.63h0c0,.11-.08,.2-.19,.21h0c-.11,0-.2-.08-.21-.19h0c0-.11,.08-.2,.19-.21,.11,0,.21,.08,.23,.19"/>
                    <path id="Path_67" data-name="Path 67" class="cls-2" d="M69.34,138.94c.11,0,.2-.08,.21-.19-1.39,13.13-2.57,26.3-3.51,39.09-2,27.18-3.01,54.13-2.92,80.05,.06,26.83,1.24,54.79,3.5,83.1,.83,10.38,1.81,21.05,2.94,31.59-.02-.11-.12-.2-.23-.19-.11,.01-.19,.1-.19,.21-1.11-10.57-2.1-21.19-2.94-31.58-2.27-28.31-3.44-56.27-3.5-83.13-.06-25.95,.92-52.89,2.92-80.08,.94-12.84,2.12-26,3.52-39.09,0,.11,.08,.2,.18,.21h0"/>
                    <path id="Path_68" data-name="Path 68" class="cls-2" d="M28.02,128.4c3.2-29.1,26.17-52.07,55.27-55.27-.12,.01-.2,.11-.19,.23h0c.02,.1,.11,.18,.21,.18-28.94,3.07-51.81,25.93-54.88,54.87-.03-.11-.14-.19-.25-.16-.08,.02-.14,.08-.16,.16"/>
                    <path id="Path_69" data-name="Path 69" class="cls-2" d="M28.24,383.19c.1-.02,.18-.11,.18-.21,3.07,28.94,25.94,51.81,54.88,54.88-.11,0-.2,.08-.22,.18-.01,.12,.07,.22,.19,.23h0c-29.09-3.21-52.06-26.18-55.27-55.27,.01,.11,.1,.19,.21,.19h0"/>
                    <path id="Path_70" data-name="Path 70" class="cls-2" d="M28.43,382.94h0c0,.11-.08,.2-.18,.21h0c-.11,0-.2-.08-.21-.19h0c0-.11,.08-.2,.18-.21,.11,0,.21,.07,.23,.18"/>
                    <path id="Path_71" data-name="Path 71" class="cls-2" d="M28.43,128.44h0c-.02,.1-.11,.18-.21,.18h0c-.1-.02-.18-.11-.18-.21h0c.03-.11,.14-.19,.25-.16,.08,.02,.14,.08,.16,.16l-.02,.03Z"/>
                    <path id="Path_72" data-name="Path 72" class="cls-2" d="M28.24,128.63c.11,0,.2-.08,.21-.18-9.75,84.55-9.75,169.95,0,254.5-.01-.11-.1-.19-.21-.19-.1,.01-.18,.11-.18,.21-9.75-84.57-9.75-169.97,0-254.54,0,.11,.08,.2,.18,.21h0Z"/>
                  </g>
                </g>
              </g>
            </g>
          </g>
        </g>
      </g>
    </g>
  </g>
  <text class="cls-3" transform="translate(473.67 340)"><tspan x="0" y="0">ec</tspan><tspan class="cls-7" x="288.89" y="0">t</tspan><tspan x="376.11" y="0">opass</tspan></text>
</svg>