<?xml version="1.0" encoding="UTF-8"?>
<svg id="Layer_1" data-name="Layer 1" xmlns="http://www.w3.org/2000/svg" width="158.14" height="37.92" xmlns:xlink="http://www.w3.org/1999/xlink" viewBox="0 0 158.14 37.92">
  <defs>
    <style>
      .cls-1 {
        clip-path: url(#clippath-2);
      }

      .cls-2 {
        fill: #333;
      }

      .cls-3 {
        clip-path: url(#clippath-1);
      }

      .cls-4 {
        clip-path: url(#clippath);
      }

      .cls-5 {
        fill: none;
      }
    </style>
    <clipPath id="clippath">
      <rect class="cls-5" width="37.87" height="37.92"/>
    </clipPath>
    <clipPath id="clippath-1">
      <rect class="cls-5" x=".01" y=".01" width="37.84" height="37.89"/>
    </clipPath>
    <clipPath id="clippath-2">
      <rect class="cls-5" x=".01" y=".01" width="37.84" height="37.89"/>
    </clipPath>
  </defs>
  <g id="Group_8" data-name="Group 8">
    <g class="cls-4">
      <g id="Group_7" data-name="Group 7">
        <g id="Group_6" data-name="Group 6" transform="translate(0.015 0.015)">
          <g class="cls-3">
            <g id="Group_5" data-name="Group 5">
              <g id="Group_4" data-name="Group 4">
                <g class="cls-1">
                  <g id="Group_3" data-name="Group 3">
                    <path id="Path_16" data-name="Path 16" class="cls-2" d="M16.27,17.26h-3.59c-1.17-.03-2.14,.9-2.16,2.07s.9,2.14,2.07,2.16c.03,0,.06,0,.09,0h3.59c-1.17,1.98-3.72,2.64-5.71,1.48-1.98-1.17-2.64-3.72-1.48-5.71,1.17-1.98,3.72-2.64,5.71-1.48,.61,.36,1.12,.87,1.48,1.48"/>
                    <path id="Path_17" data-name="Path 17" class="cls-2" d="M16.29,17.3c.74,1.28,.74,2.86,0,4.15h-3.62c-1.15,.03-2.09-.88-2.12-2.03-.03-1.15,.88-2.09,2.03-2.12,.03,0,.06,0,.09,0h3.62Z"/>
                    <path id="Path_18" data-name="Path 18" class="cls-2" d="M22.73,17.3c1.15-.03,2.09,.88,2.12,2.03s-.88,2.09-2.03,2.12c-.03,0-.06,0-.09,0h-6.39c.73-1.29,.73-2.86,0-4.15h6.39Z"/>
                    <path id="Path_19" data-name="Path 19" class="cls-2" d="M37.13,6.26c.37,3.3,.59,6.53,.68,9.6-2.26-.08-4.12-1.82-4.35-4.07l-.02-.27c0-.11-.02-.23-.02-.34-.09-1.28-.21-2.59-.35-3.91h0c-.14-1.29-1.16-2.3-2.44-2.44h0c-1.05-.11-2.12-.21-3.15-.29-2.82-.23-5.61-.34-8.29-.35-2.59,0-5.28,.09-7.99,.29-1.28,.09-2.6,.21-3.91,.35h0c-1.28,.14-2.3,1.16-2.44,2.44h0c-.14,1.31-.26,2.62-.35,3.9-.2,2.71-.3,5.4-.29,7.99,0,2.68,.12,5.47,.35,8.29,.08,1.04,.18,2.1,.29,3.15h0c.14,1.28,1.16,2.3,2.44,2.44h0c1.31,.14,2.62,.26,3.9,.35,2.64,.19,5.25,.29,7.77,.29h.22c2.68,0,5.47-.12,8.29-.35,1.03-.08,2.09-.18,3.15-.29h0c1.28-.14,2.29-1.15,2.44-2.43h0c.11-1.07,.21-2.13,.29-3.16,.12-1.53,.21-3.06,.27-4.55,2.29,.34,3.96,2.35,3.88,4.67-.1,1.33-.23,2.69-.38,4.06h0c-.31,2.89-2.59,5.17-5.47,5.47h0c-4.22,.47-8.46,.72-12.7,.73-4.24-.01-8.48-.25-12.7-.73h0c-2.89-.31-5.17-2.59-5.47-5.47H.77C.3,27.43,.05,23.19,.04,18.94c.02-4.24,.27-8.47,.75-12.68H.79C1.09,3.37,3.37,1.09,6.26,.79h0C10.48,.31,14.72,.07,18.96,.06c4.24,.01,8.48,.25,12.7,.73h0c2.89,.31,5.17,2.59,5.47,5.47h0Z"/>
                    <path id="Path_20" data-name="Path 20" class="cls-2" d="M37.86,15.89s0,.02-.02,.02h0s-.02,0-.02-.02v-.02h.02s.02,0,.02,.02"/>
                    <path id="Path_21" data-name="Path 21" class="cls-2" d="M37.56,27.58h0v.03s0-.02,0-.03"/>
                    <path id="Path_22" data-name="Path 22" class="cls-2" d="M37.53,27.92c0-.11,.02-.21,.03-.32,0,.11-.01,.21-.03,.32"/>
                    <path id="Path_23" data-name="Path 23" class="cls-2" d="M37.56,27.58s0,.02,0,.03c0,.11-.02,.21-.03,.32h0s0,.02-.02,.02h0s-.02-.01-.02-.02c.01-.11,.02-.22,.03-.33h0s.01-.03,.02-.03c0,0,.02,0,.02,.02"/>
                    <path id="Path_24" data-name="Path 24" class="cls-2" d="M37.13,6.26s0-.02,.02-.02c.01,0,.02,0,.02,.02h0s0,.02-.02,.02h0s-.02,0-.02-.02h0Z"/>
                    <path id="Path_25" data-name="Path 25" class="cls-2" d="M37.15,6.28h0s.02-.01,.02-.02c.36,3.31,.6,6.54,.68,9.63,0-.01,0-.02-.02-.02h-.02c-.09-3.08-.32-6.31-.68-9.61,0,.01,.01,.02,.02,.02"/>
                    <path id="Path_26" data-name="Path 26" class="cls-2" d="M37.15,31.68h0s-.02-.01-.02-.02h0s.01-.02,.02-.02c.01,0,.02,.01,.02,.02h0s-.01,.02-.02,.02"/>
                    <path id="Path_27" data-name="Path 27" class="cls-2" d="M37.13,31.66c.15-1.37,.28-2.73,.38-4.06,0,.11-.01,.22-.03,.33,0,.01,0,.02,.02,.02h0s.02,0,.02-.02c-.1,1.22-.22,2.48-.36,3.73,0-.01,0-.02-.02-.02-.01,0-.02,0-.02,.02"/>
                    <path id="Path_28" data-name="Path 28" class="cls-2" d="M37.51,27.59c.09-2.32-1.58-4.33-3.88-4.67v-.02s0-.02-.02-.02h0c2.33,.32,4.03,2.35,3.94,4.7,0,0,0-.02-.02-.02-.01,0-.02,0-.02,.02h0"/>
                    <path id="Path_29" data-name="Path 29" class="cls-2" d="M33.62,22.88s.02,.01,.02,.02h0v.02h-.02s-.02-.01-.02-.02h0s0-.02,.01-.02h0Z"/>
                    <path id="Path_31" data-name="Path 31" class="cls-2" d="M33.6,22.9h0Z"/>
                    <path id="Path_32" data-name="Path 32" class="cls-2" d="M33.47,11.8c.23,2.25,2.09,3.99,4.35,4.07v.02s0,.02,.02,.02c-2.29-.07-4.17-1.82-4.41-4.09,0,0,.01,.02,.02,.02h0s.02-.01,.02-.02h0"/>
                    <path id="Path_33" data-name="Path 33" class="cls-2" d="M33.47,11.81s0,.02-.02,.02h0s-.02,0-.02-.02h0v-.02l-.02-.26h0s0-.02,.02-.02c.01,0,.02,0,.02,.02h0c0,.09,.01,.18,.02,.27h0"/>
                    <path id="Path_34" data-name="Path 34" class="cls-2" d="M33.45,11.53c0,.09,.01,.18,.02,.27,0-.09-.02-.18-.02-.27"/>
                    <path id="Path_36" data-name="Path 36" class="cls-2" d="M33.41,11.53c0,.09,.01,.18,.02,.26,0-.09-.02-.18-.02-.26"/>
                    <path id="Path_37" data-name="Path 37" class="cls-2" d="M33.05,30.6s-.01,0-.02,0c.11-1.05,.21-2.11,.29-3.14,.12-1.54,.22-3.08,.27-4.57,0,.01,0,.02,.02,.02h.02c-.06,1.49-.15,3.02-.27,4.55-.08,1.04-.18,2.1-.29,3.15h0s0-.02-.02-.02"/>
                    <path id="Path_38" data-name="Path 38" class="cls-2" d="M33.05,7.31s.02-.01,.02-.02h0c.14,1.31,.26,2.62,.35,3.9,0,.11,.02,.23,.02,.34,0-.01-.01-.02-.02-.02-.01,0-.02,0-.02,.02l-.02-.34c-.09-1.28-.21-2.59-.35-3.9,0,0,.01,.01,.02,.01h0Z"/>
                    <path id="Path_39" data-name="Path 39" class="cls-2" d="M33.05,30.61s.02,.01,.02,.02h0s-.01,.02-.02,.02h0s-.02-.01-.02-.02h0s.01-.02,.02-.02"/>
                    <path id="Path_40" data-name="Path 40" class="cls-2" d="M33.07,7.28s0,.02-.02,.02h0s-.01,0-.02,0h0s0-.03,.02-.03c0,0,.02,0,.02,.01h0"/>
                    <path id="Path_41" data-name="Path 41" class="cls-2" d="M35.38,2.53c1,1,1.63,2.32,1.79,3.73,0-.01-.01-.02-.02-.02h0s-.02,.01-.02,.02c-.31-2.89-2.59-5.17-5.47-5.47,.01,0,.02-.01,.02-.03,0,0,0-.01-.02-.02,1.41,.16,2.72,.79,3.72,1.79"/>
                    <path id="Path_42" data-name="Path 42" class="cls-2" d="M37.15,31.68h0s.02,0,.02-.02c-.32,2.9-2.61,5.19-5.51,5.51,.01,0,.02-.01,.02-.02,0-.01-.01-.02-.02-.02,2.89-.31,5.17-2.59,5.47-5.47,0,.01,0,.02,.02,.02"/>
                    <path id="Path_43" data-name="Path 43" class="cls-2" d="M31.66,.75s.02,.01,.02,.03c0,0,0,.01-.02,.02h0s-.02-.01-.02-.02c0-.01,.01-.02,.02-.02h0Z"/>
                    <path id="Path_44" data-name="Path 44" class="cls-2" d="M31.68,37.15s0,.02-.02,.02h0s-.02-.01-.02-.03c0,0,0-.01,.02-.02h0s.02,0,.02,.02"/>
                    <path id="Path_45" data-name="Path 45" class="cls-2" d="M30.65,4.87s0-.02-.02-.02h0c1.28,.14,2.29,1.15,2.44,2.43,0,0-.01-.01-.02-.01-.01,0-.02,.01-.02,.02h0c-.14-1.26-1.14-2.26-2.4-2.4,.01,0,.02,0,.02-.02"/>
                    <path id="Path_46" data-name="Path 46" class="cls-2" d="M30.63,33.03c1.26-.14,2.26-1.14,2.4-2.4h0s0,.02,.02,.02h0s.01,0,.02,0c-.15,1.28-1.16,2.29-2.44,2.43,.01,0,.02-.01,.02-.02,0-.01-.01-.02-.02-.02"/>
                    <path id="Path_47" data-name="Path 47" class="cls-2" d="M30.65,4.87s-.01,.02-.02,.02h0s-.02-.01-.02-.02h0s.01-.02,.02-.02h0s.02,.01,.02,.02h0"/>
                    <path id="Path_48" data-name="Path 48" class="cls-2" d="M30.65,33.05s0,.02-.02,.02h0s-.02,0-.02-.02c0-.01,0-.02,.02-.02h0s.02,0,.02,.02"/>
                    <path id="Path_49" data-name="Path 49" class="cls-2" d="M22.73,21.45c1.15-.03,2.05-.97,2.03-2.12-.02-1.11-.92-2-2.03-2.03h-6.39l-.02-.04h6.41c1.17,.03,2.09,.99,2.07,2.16-.02,1.13-.94,2.04-2.07,2.07h-6.41l.02-.04h6.39Z"/>
                    <path id="Path_50" data-name="Path 50" class="cls-2" d="M16.34,17.3c.73,1.29,.73,2.86,0,4.15h-.05c.74-1.28,.74-2.86,0-4.15h.05Z"/>
                    <path id="Path_51" data-name="Path 51" class="cls-2" d="M16.34,17.3h-.05l-.02-.04h.05l.02,.04"/>
                    <path id="Path_52" data-name="Path 52" class="cls-2" d="M16.29,21.45h.05l-.02,.04h-.05l.02-.04"/>
                    <path id="Path_53" data-name="Path 53" class="cls-2" d="M12.68,17.3c-1.15-.03-2.09,.88-2.12,2.03-.03,1.15,.88,2.09,2.03,2.12,.03,0,.06,0,.09,0h3.62l-.02,.04h-3.59c-1.17-.03-2.09-.99-2.07-2.16,.02-1.13,.94-2.04,2.07-2.07h3.59l.02,.04h-3.62Z"/>
                    <path id="Path_54" data-name="Path 54" class="cls-2" d="M12.68,23.55c1.48,0,2.84-.78,3.59-2.05h.05c-1.17,2.01-3.75,2.69-5.76,1.52-2.01-1.17-2.69-3.75-1.52-5.76,1.17-2.01,3.75-2.69,5.76-1.52,.63,.37,1.16,.89,1.52,1.52h-.05c-1.17-1.98-3.72-2.64-5.71-1.47-1.98,1.17-2.64,3.72-1.47,5.71,.75,1.27,2.12,2.05,3.59,2.05"/>
                    <path id="Path_55" data-name="Path 55" class="cls-2" d="M19.18,33.67c2.68,0,5.47-.12,8.29-.35,1.04-.08,2.1-.18,3.15-.29-.01,0-.02,0-.02,.02,0,.01,0,.02,.02,.02-1.06,.11-2.12,.21-3.15,.29-2.82,.22-5.61,.34-8.29,.35h-.22c-2.52,0-5.14-.1-7.77-.29-1.28-.09-2.59-.21-3.9-.35,.01,0,.02,0,.02-.02,0-.01,0-.02-.02-.02h0c1.31,.14,2.62,.26,3.9,.35,2.71,.2,5.4,.3,7.99,.29"/>
                    <path id="Path_56" data-name="Path 56" class="cls-2" d="M27.47,4.6c-2.82-.23-5.61-.34-8.29-.35-2.59,0-5.27,.09-7.99,.29-1.28,.09-2.59,.21-3.9,.35,.01,0,.02-.01,.02-.02,0-.01-.01-.02-.02-.02,1.31-.14,2.62-.26,3.91-.35,2.71-.2,5.4-.3,7.99-.29,2.68,0,5.47,.12,8.29,.35,1.04,.08,2.1,.18,3.15,.29-.01,0-.02,0-.02,.02,0,.01,0,.02,.02,.02-1.05-.11-2.12-.21-3.15-.29"/>
                    <path id="Path_57" data-name="Path 57" class="cls-2" d="M7.29,33.03h0s.02,.01,.02,.02h0s-.01,.02-.02,.02h0s-.02-.01-.02-.02h0s.01-.02,.02-.02"/>
                    <path id="Path_58" data-name="Path 58" class="cls-2" d="M7.31,4.87s0,.02-.02,.02h0s-.02,0-.02-.02c0-.01,0-.02,.02-.02h0s.02,0,.02,.02"/>
                    <path id="Path_59" data-name="Path 59" class="cls-2" d="M31.65,37.17c-8.44,.97-16.96,.97-25.39,0,.01,0,.02-.01,.02-.03,0,0,0-.01-.02-.02,8.44,.97,16.95,.97,25.39,0-.01,0-.02,.01-.02,.03,0,0,0,.01,.02,.02"/>
                    <path id="Path_60" data-name="Path 60" class="cls-2" d="M18.96,.01c4.24,.01,8.48,.26,12.7,.73-.01,0-.02,0-.02,.02,0,.01,0,.02,.02,.02C23.22-.19,14.7-.19,6.26,.79c.01,0,.02-.01,.02-.03,0,0,0-.01-.02-.02C10.48,.27,14.72,.03,18.96,.01"/>
                    <path id="Path_61" data-name="Path 61" class="cls-2" d="M6.26,37.17h0s-.02-.01-.02-.02h0s.01-.02,.02-.02h0s.02,.01,.02,.03c0,0,0,.01-.02,.02"/>
                    <path id="Path_62" data-name="Path 62" class="cls-2" d="M6.26,.79s-.02,0-.02-.02c0-.01,0-.02,.02-.02h0s.02,.01,.02,.03c0,0,0,.01-.02,.02h0Z"/>
                    <path id="Path_63" data-name="Path 63" class="cls-2" d="M7.29,4.89c-1.26,.14-2.26,1.14-2.4,2.4,0-.01,0-.02-.02-.02-.01,0-.02,0-.02,.02,.14-1.28,1.16-2.3,2.44-2.44-.01,0-.02,.01-.02,.02,0,.01,.01,.02,.02,.02"/>
                    <path id="Path_64" data-name="Path 64" class="cls-2" d="M4.89,30.63c.14,1.26,1.14,2.26,2.4,2.4-.01,0-.02,0-.02,.02,0,.01,0,.02,.02,.02h0c-1.28-.14-2.3-1.16-2.44-2.44,0,.01,.01,.02,.02,.02h0s.02-.01,.02-.02"/>
                    <path id="Path_65" data-name="Path 65" class="cls-2" d="M4.89,7.29h0s-.01,.02-.02,.02h0s-.02-.01-.02-.02h0s.01-.02,.02-.02c.01,0,.02,.01,.02,.02"/>
                    <path id="Path_66" data-name="Path 66" class="cls-2" d="M4.89,30.62h0s0,.02-.02,.02h0s-.02,0-.02-.02h0s0-.02,.02-.02c.01,0,.02,0,.02,.02"/>
                    <path id="Path_67" data-name="Path 67" class="cls-2" d="M4.87,7.31s.02,0,.02-.02c-.14,1.31-.26,2.62-.35,3.9-.2,2.71-.3,5.4-.29,7.99,0,2.68,.12,5.47,.35,8.29,.08,1.04,.18,2.1,.29,3.15,0-.01-.01-.02-.02-.02-.01,0-.02,.01-.02,.02-.11-1.05-.21-2.11-.29-3.15-.23-2.82-.34-5.61-.35-8.29,0-2.59,.09-5.28,.29-7.99,.09-1.28,.21-2.59,.35-3.9,0,.01,0,.02,.02,.02h0"/>
                    <path id="Path_68" data-name="Path 68" class="cls-2" d="M.75,6.26C1.06,3.36,3.36,1.06,6.26,.74c-.01,0-.02,.01-.02,.02h0s.01,.02,.02,.02C3.37,1.09,1.09,3.37,.79,6.26c0-.01-.01-.02-.03-.02,0,0-.01,0-.02,.02"/>
                    <path id="Path_69" data-name="Path 69" class="cls-2" d="M.77,31.68s.02-.01,.02-.02c.31,2.89,2.59,5.17,5.48,5.47-.01,0-.02,0-.02,.02,0,.01,0,.02,.02,.02h0c-2.9-.32-5.19-2.61-5.51-5.51,0,.01,.01,.02,.02,.02H.76"/>
                    <path id="Path_70" data-name="Path 70" class="cls-2" d="M.79,31.65H.79s0,.02-.02,.02H.77s-.02,0-.02-.02H.75s0-.02,.02-.02c.01,0,.02,0,.02,.02"/>
                    <path id="Path_71" data-name="Path 71" class="cls-2" d="M.79,6.26H.79s-.01,.02-.02,.02H.77s-.02-.01-.02-.02H.75s.01-.02,.03-.02c0,0,.01,0,.02,.02h0Z"/>
                    <path id="Path_72" data-name="Path 72" class="cls-2" d="M.77,6.28s.02,0,.02-.02C-.18,14.7-.18,23.22,.79,31.65c0-.01-.01-.02-.02-.02-.01,0-.02,.01-.02,.02C-.22,23.22-.22,14.7,.75,6.26c0,.01,0,.02,.02,.02H.77Z"/>
                  </g>
                </g>
              </g>
            </g>
          </g>
        </g>
      </g>
    </g>
  </g>
  <rect class="cls-2" x="9.81" y="17.02" width="5" height="5"/>
  <rect class="cls-2" x="13.81" y="17.27" width="6" height="4.2"/>
  <g>
    <path class="cls-2" d="M53.83,30.3c-1.26,0-2.4-.31-3.41-.93-1.02-.62-1.81-1.48-2.37-2.59-.57-1.11-.85-2.35-.85-3.73v-.59c0-1.42,.28-2.7,.83-3.84,.55-1.14,1.32-2.03,2.3-2.69,.98-.65,2.05-.98,3.2-.98,1.8,0,3.22,.61,4.27,1.84,1.05,1.23,1.58,2.9,1.58,5.02v.92h-10.55v.31c0,1.68,.48,3.07,1.44,4.19,.96,1.12,2.17,1.67,3.63,1.67,.88,0,1.65-.16,2.32-.48,.67-.32,1.28-.83,1.83-1.53l1.03,.78c-1.2,1.74-2.95,2.61-5.24,2.61Zm-.3-13.95c-1.23,0-2.27,.45-3.11,1.35-.84,.9-1.36,2.11-1.54,3.64h8.87v-.18c-.05-1.42-.45-2.58-1.22-3.47-.77-.89-1.77-1.34-3.01-1.34Z"/>
    <path class="cls-2" d="M68.04,28.92c1.14,0,2.09-.32,2.86-.96,.77-.64,1.19-1.47,1.25-2.5h1.57c-.05,.9-.33,1.72-.85,2.47s-1.21,1.32-2.07,1.74-1.78,.63-2.77,.63c-1.94,0-3.48-.67-4.61-2.02-1.13-1.35-1.7-3.16-1.7-5.44v-.49c0-1.46,.25-2.75,.77-3.87,.51-1.12,1.24-1.99,2.19-2.6,.95-.61,2.07-.92,3.34-.92,1.62,0,2.96,.48,4.01,1.45,1.05,.97,1.62,2.24,1.69,3.81h-1.57c-.07-1.16-.49-2.09-1.25-2.8-.76-.71-1.72-1.07-2.88-1.07-1.48,0-2.62,.53-3.44,1.6-.82,1.07-1.22,2.56-1.22,4.48v.48c0,1.89,.41,3.36,1.22,4.42,.82,1.06,1.97,1.59,3.45,1.59Z"/>
    <path class="cls-2" d="M79.54,11.44v3.79h3.06v1.34h-3.06v9.87c0,.82,.15,1.43,.45,1.83,.29,.4,.79,.6,1.48,.6,.27,0,.72-.04,1.33-.14l.07,1.33c-.43,.15-1.01,.23-1.75,.23-1.12,0-1.94-.33-2.45-.98-.51-.65-.77-1.61-.77-2.88v-9.87h-2.72v-1.34h2.72v-3.79h1.64Z"/>
    <path class="cls-2" d="M84.81,22.41c0-1.42,.28-2.7,.83-3.84,.55-1.14,1.33-2.03,2.34-2.66,1.01-.63,2.15-.95,3.42-.95,1.97,0,3.56,.69,4.79,2.07s1.83,3.21,1.83,5.49v.34c0,1.43-.28,2.72-.83,3.86s-1.33,2.03-2.33,2.65c-1,.62-2.15,.93-3.43,.93-1.96,0-3.55-.69-4.78-2.07s-1.84-3.21-1.84-5.49v-.33Zm1.64,.45c0,1.77,.46,3.22,1.37,4.35s2.12,1.7,3.6,1.7,2.67-.57,3.59-1.7,1.37-2.63,1.37-4.49v-.31c0-1.13-.21-2.16-.63-3.1-.42-.94-1.01-1.67-1.76-2.18-.76-.51-1.62-.77-2.6-.77-1.46,0-2.65,.57-3.57,1.72-.92,1.14-1.38,2.64-1.38,4.49v.3Z"/>
    <path class="cls-2" d="M113.29,22.78c0,2.31-.51,4.14-1.53,5.49s-2.39,2.03-4.1,2.03c-2.02,0-3.57-.71-4.65-2.13v7.55h-1.63V15.23h1.52l.08,2.09c1.07-1.58,2.61-2.37,4.63-2.37,1.77,0,3.16,.67,4.16,2.01s1.51,3.2,1.51,5.58v.23Zm-1.64-.29c0-1.89-.39-3.38-1.16-4.47s-1.85-1.64-3.24-1.64c-1,0-1.86,.24-2.58,.72-.72,.48-1.27,1.19-1.65,2.11v7.1c.39,.85,.95,1.5,1.68,1.94,.73,.45,1.59,.67,2.58,.67,1.38,0,2.45-.55,3.22-1.65s1.16-2.69,1.16-4.78Z"/>
    <path class="cls-2" d="M126.25,30.02c-.16-.46-.27-1.15-.31-2.06-.57,.75-1.31,1.32-2.19,1.73s-1.83,.61-2.82,.61c-1.42,0-2.57-.4-3.45-1.19s-1.32-1.79-1.32-3.01c0-1.44,.6-2.58,1.8-3.42,1.2-.84,2.87-1.26,5.01-1.26h2.97v-1.68c0-1.06-.33-1.89-.98-2.5-.65-.61-1.6-.91-2.85-.91-1.14,0-2.08,.29-2.83,.88-.75,.58-1.12,1.29-1.12,2.11h-1.64c0-1.19,.55-2.21,1.64-3.07s2.44-1.29,4.03-1.29,2.95,.41,3.9,1.24c.95,.83,1.44,1.98,1.47,3.45v7c0,1.43,.15,2.5,.45,3.21v.16h-1.75Zm-5.14-1.18c1.09,0,2.07-.26,2.93-.79,.86-.53,1.49-1.23,1.88-2.12v-3.25h-2.93c-1.63,.02-2.91,.32-3.83,.9s-1.38,1.37-1.38,2.39c0,.83,.31,1.52,.92,2.06s1.42,.82,2.4,.82Z"/>
    <path class="cls-2" d="M140.77,26.26c0-.81-.33-1.46-.98-1.96s-1.63-.88-2.95-1.16-2.33-.6-3.06-.96-1.26-.8-1.61-1.32-.53-1.15-.53-1.89c0-1.17,.49-2.13,1.46-2.89,.98-.76,2.22-1.14,3.75-1.14,1.65,0,2.97,.41,3.97,1.22,1,.82,1.5,1.88,1.5,3.19h-1.64c0-.87-.36-1.59-1.09-2.16s-1.64-.86-2.74-.86-1.94,.24-2.59,.72-.98,1.1-.98,1.87,.27,1.31,.81,1.72,1.53,.78,2.97,1.11c1.44,.34,2.51,.7,3.23,1.08s1.25,.84,1.59,1.38c.35,.54,.52,1.19,.52,1.96,0,1.25-.5,2.25-1.51,2.99-1.01,.75-2.32,1.12-3.94,1.12-1.72,0-3.12-.42-4.19-1.25s-1.61-1.89-1.61-3.17h1.64c.06,.96,.47,1.7,1.21,2.24s1.72,.8,2.95,.8c1.14,0,2.06-.25,2.76-.75,.7-.5,1.05-1.13,1.05-1.9Z"/>
    <path class="cls-2" d="M154.95,26.26c0-.81-.33-1.46-.98-1.96s-1.63-.88-2.95-1.16-2.33-.6-3.06-.96-1.26-.8-1.61-1.32-.53-1.15-.53-1.89c0-1.17,.49-2.13,1.46-2.89,.98-.76,2.22-1.14,3.75-1.14,1.65,0,2.97,.41,3.97,1.22,1,.82,1.5,1.88,1.5,3.19h-1.64c0-.87-.36-1.59-1.09-2.16s-1.64-.86-2.74-.86-1.94,.24-2.59,.72-.98,1.1-.98,1.87,.27,1.31,.81,1.72,1.53,.78,2.97,1.11c1.44,.34,2.51,.7,3.23,1.08s1.25,.84,1.59,1.38c.35,.54,.52,1.19,.52,1.96,0,1.25-.5,2.25-1.51,2.99-1.01,.75-2.32,1.12-3.94,1.12-1.72,0-3.12-.42-4.19-1.25s-1.61-1.89-1.61-3.17h1.64c.06,.96,.47,1.7,1.21,2.24s1.72,.8,2.95,.8c1.14,0,2.06-.25,2.76-.75,.7-.5,1.05-1.13,1.05-1.9Z"/>
  </g>
</svg>